<?xml version="1.0" encoding="UTF-8" standalone="no"?>
<!-- Created with Inkscape (http://www.inkscape.org/) -->

<svg
   xmlns:dc="http://purl.org/dc/elements/1.1/"
   xmlns:cc="http://creativecommons.org/ns#"
   xmlns:rdf="http://www.w3.org/1999/02/22-rdf-syntax-ns#"
   xmlns:svg="http://www.w3.org/2000/svg"
   xmlns="http://www.w3.org/2000/svg"
   xmlns:sodipodi="http://sodipodi.sourceforge.net/DTD/sodipodi-0.dtd"
   xmlns:inkscape="http://www.inkscape.org/namespaces/inkscape"
   width="602.36218"
   height="212.59842"
   id="svg2"
   version="1.1"
   inkscape:version="0.48.4 r9939"
   sodipodi:docname="Nouveau document 1">
  <defs
     id="defs4">
    <inkscape:perspective
       sodipodi:type="inkscape:persp3d"
       inkscape:vp_x="0 : 301.18109 : 1"
       inkscape:vp_y="0 : 1000 : 0"
       inkscape:vp_z="602.36218 : 301.18109 : 1"
       inkscape:persp3d-origin="301.18109 : 200.78739 : 1"
       id="perspective4032" />
    <inkscape:perspective
       sodipodi:type="inkscape:persp3d"
       inkscape:vp_x="-207.94067 : 309.21405 : 1"
       inkscape:vp_y="0 : 977.76587 : 0"
       inkscape:vp_z="437.04058 : 309.21405 : 1"
       inkscape:persp3d-origin="114.54996 : 211.05252 : 1"
       id="perspective4032-8" />
    <inkscape:perspective
       sodipodi:type="inkscape:persp3d"
       inkscape:vp_x="-305.58823 : 263.56628 : 1"
       inkscape:vp_y="0 : 789.52793 : 0"
       inkscape:vp_z="308.71006 : 263.56628 : 1"
       inkscape:persp3d-origin="1.5609132 : 184.30265 : 1"
       id="perspective4032-2" />
    <inkscape:perspective
       sodipodi:type="inkscape:persp3d"
       inkscape:vp_x="22.605654 : 285.82514 : 1"
       inkscape:vp_y="0 : 789.52793 : 0"
       inkscape:vp_z="636.90394 : 285.82514 : 1"
       inkscape:persp3d-origin="329.7548 : 206.56151 : 1"
       id="perspective4032-2-7" />
    <inkscape:perspective
       sodipodi:type="inkscape:persp3d"
       inkscape:vp_x="-121.96127 : 272.27198 : 1"
       inkscape:vp_y="0 : 789.52793 : 0"
       inkscape:vp_z="492.33702 : 272.27198 : 1"
       inkscape:persp3d-origin="185.18787 : 193.00835 : 1"
       id="perspective4032-2-8" />
  </defs>
  <sodipodi:namedview
     id="base"
     pagecolor="#ffffff"
     bordercolor="#666666"
     borderopacity="1.0"
     inkscape:pageopacity="0.0"
     inkscape:pageshadow="2"
     inkscape:zoom="1.3281046"
     inkscape:cx="202.94782"
     inkscape:cy="213.5342"
     inkscape:document-units="px"
     inkscape:current-layer="layer1"
     showgrid="true"
     units="cm"
     inkscape:snap-global="false"
     inkscape:window-width="1280"
     inkscape:window-height="968"
     inkscape:window-x="-4"
     inkscape:window-y="-4"
     inkscape:window-maximized="1">
    <inkscape:grid
       type="xygrid"
       id="grid3874"
       empspacing="5"
       visible="true"
       enabled="true"
       snapvisiblegridlinesonly="true" />
  </sodipodi:namedview>
  <metadata
     id="metadata7">
    <rdf:RDF>
      <cc:Work
         rdf:about="">
        <dc:format>image/svg+xml</dc:format>
        <dc:type
           rdf:resource="http://purl.org/dc/dcmitype/StillImage" />
        <dc:title></dc:title>
      </cc:Work>
    </rdf:RDF>
  </metadata>
  <g
     inkscape:label="Calque 1"
     inkscape:groupmode="layer"
     id="layer1"
     transform="translate(0,-839.76244)">
    <path
       sodipodi:type="arc"
       style="fill:#c33e3c;fill-opacity:1;fill-rule:nonzero;stroke:#000000;stroke-width:7.26183891;stroke-miterlimit:4;stroke-dasharray:none"
       id="path3769-3"
       sodipodi:cx="407.14285"
       sodipodi:cy="616.29077"
       sodipodi:rx="25.714285"
       sodipodi:ry="41.07143"
       d="m 432.85714,616.29077 c 0,22.68313 -11.51268,41.07143 -25.71429,41.07143 -14.2016,0 -25.71428,-18.3883 -25.71428,-41.07143 0,-22.68312 11.51268,-41.07143 25.71428,-41.07143 14.20161,0 25.71429,18.38831 25.71429,41.07143 z"
       transform="matrix(0.36871052,0,0,0.20572223,-132.53402,835.86825)" />
    <rect
       style="fill:#599b79;fill-opacity:1;fill-rule:nonzero;stroke:#000000;stroke-width:2;stroke-linejoin:round;stroke-miterlimit:4;stroke-opacity:1;stroke-dasharray:none;stroke-dashoffset:0"
       id="rect4285-7-9"
       width="19.364706"
       height="17.12253"
       x="7.313005"
       y="929.35376" />
    <path
       sodipodi:type="arc"
       style="fill:#ffffff;fill-opacity:1;fill-rule:nonzero;stroke:#000000;stroke-width:7.26183891;stroke-miterlimit:4;stroke-dasharray:none"
       id="path3769-3-0"
       sodipodi:cx="407.14285"
       sodipodi:cy="616.29077"
       sodipodi:rx="25.714285"
       sodipodi:ry="41.07143"
       d="m 432.85714,616.29077 c 0,22.68313 -11.51268,41.07143 -25.71429,41.07143 -14.2016,0 -25.71428,-18.3883 -25.71428,-41.07143 0,-22.68312 11.51268,-41.07143 25.71428,-41.07143 14.20161,0 25.71429,18.38831 25.71429,41.07143 z"
       transform="matrix(0.36871052,0,0,0.20572223,-112.21258,835.86825)" />
    <rect
       style="fill:#599b79;fill-opacity:1;fill-rule:nonzero;stroke:#000000;stroke-width:2;stroke-linejoin:round;stroke-miterlimit:4;stroke-opacity:1;stroke-dasharray:none;stroke-dashoffset:0"
       id="rect4285-7-9-7"
       width="19.364706"
       height="17.12253"
       x="27.634443"
       y="929.35376" />
    <path
       sodipodi:type="arc"
       style="fill:#c33e3c;fill-opacity:1;fill-rule:nonzero;stroke:#000000;stroke-width:7.26183891;stroke-miterlimit:4;stroke-dasharray:none"
       id="path3769-3-0-2"
       sodipodi:cx="407.14285"
       sodipodi:cy="616.29077"
       sodipodi:rx="25.714285"
       sodipodi:ry="41.07143"
       d="m 432.85714,616.29077 c 0,22.68313 -11.51268,41.07143 -25.71429,41.07143 -14.2016,0 -25.71428,-18.3883 -25.71428,-41.07143 0,-22.68312 11.51268,-41.07143 25.71428,-41.07143 14.20161,0 25.71429,18.38831 25.71429,41.07143 z"
       transform="matrix(0.36871052,0,0,0.20572223,-91.77913,836.12859)" />
    <rect
       style="fill:#599b79;fill-opacity:1;fill-rule:nonzero;stroke:#000000;stroke-width:2;stroke-linejoin:round;stroke-miterlimit:4;stroke-opacity:1;stroke-dasharray:none;stroke-dashoffset:0"
       id="rect4285-7-9-7-5"
       width="19.364706"
       height="17.12253"
       x="48.067898"
       y="929.61414" />
    <path
       sodipodi:type="arc"
       style="fill:#c33e3c;fill-opacity:1;fill-rule:nonzero;stroke:#000000;stroke-width:7.26183891;stroke-miterlimit:4;stroke-dasharray:none"
       id="path3769-3-5"
       sodipodi:cx="407.14285"
       sodipodi:cy="616.29077"
       sodipodi:rx="25.714285"
       sodipodi:ry="41.07143"
       d="m 432.85714,616.29077 c 0,22.68313 -11.51268,41.07143 -25.71429,41.07143 -14.2016,0 -25.71428,-18.3883 -25.71428,-41.07143 0,-22.68312 11.51268,-41.07143 25.71428,-41.07143 14.20161,0 25.71429,18.38831 25.71429,41.07143 z"
       transform="matrix(0.36871052,0,0,0.20572223,-71.313015,836.01355)" />
    <rect
       style="fill:#599b79;fill-opacity:1;fill-rule:nonzero;stroke:#000000;stroke-width:2;stroke-linejoin:round;stroke-miterlimit:4;stroke-opacity:1;stroke-dasharray:none;stroke-dashoffset:0"
       id="rect4285-7-9-2"
       width="19.364706"
       height="17.12253"
       x="68.533989"
       y="929.49908" />
    <path
       sodipodi:type="arc"
       style="fill:#c33e3c;fill-opacity:1;fill-rule:nonzero;stroke:#000000;stroke-width:7.26183891;stroke-miterlimit:4;stroke-dasharray:none"
       id="path3769-3-0-1"
       sodipodi:cx="407.14285"
       sodipodi:cy="616.29077"
       sodipodi:rx="25.714285"
       sodipodi:ry="41.07143"
       d="m 432.85714,616.29077 c 0,22.68313 -11.51268,41.07143 -25.71429,41.07143 -14.2016,0 -25.71428,-18.3883 -25.71428,-41.07143 0,-22.68312 11.51268,-41.07143 25.71428,-41.07143 14.20161,0 25.71429,18.38831 25.71429,41.07143 z"
       transform="matrix(0.36871052,0,0,0.20572223,-51.50161,836.01355)" />
    <rect
       style="fill:#599b79;fill-opacity:1;fill-rule:nonzero;stroke:#000000;stroke-width:2;stroke-linejoin:round;stroke-miterlimit:4;stroke-opacity:1;stroke-dasharray:none;stroke-dashoffset:0"
       id="rect4285-7-9-7-4"
       width="19.364706"
       height="17.12253"
       x="89.365486"
       y="929.49908" />
    <path
       sodipodi:type="arc"
       style="fill:#c33e3c;fill-opacity:1;fill-rule:nonzero;stroke:#000000;stroke-width:7.26183891;stroke-miterlimit:4;stroke-dasharray:none"
       id="path3769-3-0-2-8"
       sodipodi:cx="407.14285"
       sodipodi:cy="616.29077"
       sodipodi:rx="25.714285"
       sodipodi:ry="41.07143"
       d="m 432.85714,616.29077 c 0,22.68313 -11.51268,41.07143 -25.71429,41.07143 -14.2016,0 -25.71428,-18.3883 -25.71428,-41.07143 0,-22.68312 11.51268,-41.07143 25.71428,-41.07143 14.20161,0 25.71429,18.38831 25.71429,41.07143 z"
       transform="matrix(0.36871052,0,0,0.20572223,-31.5782,835.81071)" />
    <rect
       style="fill:#599b79;fill-opacity:1;fill-rule:nonzero;stroke:#000000;stroke-width:2;stroke-linejoin:round;stroke-miterlimit:4;stroke-opacity:1;stroke-dasharray:none;stroke-dashoffset:0"
       id="rect4285-7-9-7-5-6"
       width="19.364706"
       height="17.12253"
       x="109.79894"
       y="929.29626" />
    <path
       sodipodi:type="arc"
       style="fill:#c33e3c;fill-opacity:1;fill-rule:nonzero;stroke:#000000;stroke-width:7.26183891;stroke-miterlimit:4;stroke-dasharray:none"
       id="path3769-3-4"
       sodipodi:cx="407.14285"
       sodipodi:cy="616.29077"
       sodipodi:rx="25.714285"
       sodipodi:ry="41.07143"
       d="m 432.85714,616.29077 c 0,22.68313 -11.51268,41.07143 -25.71429,41.07143 -14.2016,0 -25.71428,-18.3883 -25.71428,-41.07143 0,-22.68312 11.51268,-41.07143 25.71428,-41.07143 14.20161,0 25.71429,18.38831 25.71429,41.07143 z"
       transform="matrix(0.36871052,0,0,0.20572223,-10.922066,835.81073)" />
    <rect
       style="fill:#599b79;fill-opacity:1;fill-rule:nonzero;stroke:#000000;stroke-width:2;stroke-linejoin:round;stroke-miterlimit:4;stroke-opacity:1;stroke-dasharray:none;stroke-dashoffset:0"
       id="rect4285-7-9-6"
       width="19.364706"
       height="17.12253"
       x="128.92496"
       y="929.29626" />
    <path
       sodipodi:type="arc"
       style="fill:#c33e3c;fill-opacity:1;fill-rule:nonzero;stroke:#000000;stroke-width:7.26183891;stroke-miterlimit:4;stroke-dasharray:none"
       id="path3769-3-0-8"
       sodipodi:cx="407.14285"
       sodipodi:cy="616.29077"
       sodipodi:rx="25.714285"
       sodipodi:ry="41.07143"
       d="m 432.85714,616.29077 c 0,22.68313 -11.51268,41.07143 -25.71429,41.07143 -14.2016,0 -25.71428,-18.3883 -25.71428,-41.07143 0,-22.68312 11.51268,-41.07143 25.71428,-41.07143 14.20161,0 25.71429,18.38831 25.71429,41.07143 z"
       transform="matrix(0.36871052,0,0,0.20572223,9.3993738,835.81072)" />
    <rect
       style="fill:#599b79;fill-opacity:1;fill-rule:nonzero;stroke:#000000;stroke-width:2;stroke-linejoin:round;stroke-miterlimit:4;stroke-opacity:1;stroke-dasharray:none;stroke-dashoffset:0"
       id="rect4285-7-9-7-9"
       width="19.364706"
       height="17.12253"
       x="149.24638"
       y="929.29626" />
    <path
       sodipodi:type="arc"
       style="fill:#c33e3c;fill-opacity:1;fill-rule:nonzero;stroke:#000000;stroke-width:7.26183891;stroke-miterlimit:4;stroke-dasharray:none"
       id="path3769-3-0-2-83"
       sodipodi:cx="407.14285"
       sodipodi:cy="616.29077"
       sodipodi:rx="25.714285"
       sodipodi:ry="41.07143"
       d="m 432.85714,616.29077 c 0,22.68313 -11.51268,41.07143 -25.71429,41.07143 -14.2016,0 -25.71428,-18.3883 -25.71428,-41.07143 0,-22.68312 11.51268,-41.07143 25.71428,-41.07143 14.20161,0 25.71429,18.38831 25.71429,41.07143 z"
       transform="matrix(0.36871052,0,0,0.20572223,29.832814,836.07106)" />
    <rect
       style="fill:#599b79;fill-opacity:1;fill-rule:nonzero;stroke:#000000;stroke-width:2;stroke-linejoin:round;stroke-miterlimit:4;stroke-opacity:1;stroke-dasharray:none;stroke-dashoffset:0"
       id="rect4285-7-9-7-5-5"
       width="19.364706"
       height="17.12253"
       x="169.67986"
       y="929.55658" />
    <path
       sodipodi:type="arc"
       style="fill:#ffffff;fill-opacity:1;fill-rule:nonzero;stroke:#000000;stroke-width:7.26183891;stroke-miterlimit:4;stroke-dasharray:none"
       id="path3769-3-5-5"
       sodipodi:cx="407.14285"
       sodipodi:cy="616.29077"
       sodipodi:rx="25.714285"
       sodipodi:ry="41.07143"
       d="m 432.85714,616.29077 c 0,22.68313 -11.51268,41.07143 -25.71429,41.07143 -14.2016,0 -25.71428,-18.3883 -25.71428,-41.07143 0,-22.68312 11.51268,-41.07143 25.71428,-41.07143 14.20161,0 25.71429,18.38831 25.71429,41.07143 z"
       transform="matrix(0.36871052,0,0,0.20572223,50.298934,835.95602)" />
    <rect
       style="fill:#59689b;fill-opacity:1;fill-rule:nonzero;stroke:#000000;stroke-width:2;stroke-linejoin:round;stroke-miterlimit:4;stroke-opacity:1;stroke-dasharray:none;stroke-dashoffset:0"
       id="rect4285-7-9-2-1"
       width="19.364706"
       height="17.12253"
       x="190.14595"
       y="929.44159" />
    <path
       sodipodi:type="arc"
       style="fill:#ffffff;fill-opacity:1;fill-rule:nonzero;stroke:#000000;stroke-width:7.26183891;stroke-miterlimit:4;stroke-dasharray:none"
       id="path3769-3-0-1-5"
       sodipodi:cx="407.14285"
       sodipodi:cy="616.29077"
       sodipodi:rx="25.714285"
       sodipodi:ry="41.07143"
       d="m 432.85714,616.29077 c 0,22.68313 -11.51268,41.07143 -25.71429,41.07143 -14.2016,0 -25.71428,-18.3883 -25.71428,-41.07143 0,-22.68312 11.51268,-41.07143 25.71428,-41.07143 14.20161,0 25.71429,18.38831 25.71429,41.07143 z"
       transform="matrix(0.36871052,0,0,0.20572223,70.11034,835.95602)" />
    <rect
       style="fill:#59689b;fill-opacity:1;fill-rule:nonzero;stroke:#000000;stroke-width:2;stroke-linejoin:round;stroke-miterlimit:4;stroke-opacity:1;stroke-dasharray:none;stroke-dashoffset:0"
       id="rect4285-7-9-7-4-5"
       width="19.364706"
       height="17.12253"
       x="210.97742"
       y="929.44159" />
    <path
       sodipodi:type="arc"
       style="fill:#c33e3c;fill-opacity:1;fill-rule:nonzero;stroke:#000000;stroke-width:7.26183891;stroke-miterlimit:4;stroke-dasharray:none"
       id="path3769-3-0-2-8-8"
       sodipodi:cx="407.14285"
       sodipodi:cy="616.29077"
       sodipodi:rx="25.714285"
       sodipodi:ry="41.07143"
       d="m 432.85714,616.29077 c 0,22.68313 -11.51268,41.07143 -25.71429,41.07143 -14.2016,0 -25.71428,-18.3883 -25.71428,-41.07143 0,-22.68312 11.51268,-41.07143 25.71428,-41.07143 14.20161,0 25.71429,18.38831 25.71429,41.07143 z"
       transform="matrix(0.36871052,0,0,0.20572223,90.03375,835.75318)" />
    <rect
       style="fill:#59689b;fill-opacity:1;fill-rule:nonzero;stroke:#000000;stroke-width:2;stroke-linejoin:round;stroke-miterlimit:4;stroke-opacity:1;stroke-dasharray:none;stroke-dashoffset:0"
       id="rect4285-7-9-7-5-6-4"
       width="19.364706"
       height="17.12253"
       x="231.41086"
       y="929.23871" />
    <path
       sodipodi:type="arc"
       style="fill:#ffffff;fill-opacity:1;fill-rule:nonzero;stroke:#000000;stroke-width:7.26183891;stroke-miterlimit:4;stroke-dasharray:none"
       id="path3769-3-05"
       sodipodi:cx="407.14285"
       sodipodi:cy="616.29077"
       sodipodi:rx="25.714285"
       sodipodi:ry="41.07143"
       d="m 432.85714,616.29077 c 0,22.68313 -11.51268,41.07143 -25.71429,41.07143 -14.2016,0 -25.71428,-18.3883 -25.71428,-41.07143 0,-22.68312 11.51268,-41.07143 25.71428,-41.07143 14.20161,0 25.71429,18.38831 25.71429,41.07143 z"
       transform="matrix(0.36871052,0,0,0.20572223,111.26026,835.98635)" />
    <rect
       style="fill:#59689b;fill-opacity:1;fill-rule:nonzero;stroke:#000000;stroke-width:2;stroke-linejoin:round;stroke-miterlimit:4;stroke-opacity:1;stroke-dasharray:none;stroke-dashoffset:0"
       id="rect4285-7-9-4"
       width="19.364706"
       height="17.12253"
       x="251.10727"
       y="929.47186" />
    <path
       sodipodi:type="arc"
       style="fill:#ffffff;fill-opacity:1;fill-rule:nonzero;stroke:#000000;stroke-width:7.26183891;stroke-miterlimit:4;stroke-dasharray:none"
       id="path3769-3-0-7"
       sodipodi:cx="407.14285"
       sodipodi:cy="616.29077"
       sodipodi:rx="25.714285"
       sodipodi:ry="41.07143"
       d="m 432.85714,616.29077 c 0,22.68313 -11.51268,41.07143 -25.71429,41.07143 -14.2016,0 -25.71428,-18.3883 -25.71428,-41.07143 0,-22.68312 11.51268,-41.07143 25.71428,-41.07143 14.20161,0 25.71429,18.38831 25.71429,41.07143 z"
       transform="matrix(0.36871052,0,0,0.20572223,131.5817,835.98635)" />
    <rect
       style="fill:#59689b;fill-opacity:1;fill-rule:nonzero;stroke:#000000;stroke-width:2;stroke-linejoin:round;stroke-miterlimit:4;stroke-opacity:1;stroke-dasharray:none;stroke-dashoffset:0"
       id="rect4285-7-9-7-2"
       width="19.364706"
       height="17.12253"
       x="271.42871"
       y="929.47186" />
    <path
       sodipodi:type="arc"
       style="fill:#ffffff;fill-opacity:1;fill-rule:nonzero;stroke:#000000;stroke-width:7.26183891;stroke-miterlimit:4;stroke-dasharray:none"
       id="path3769-3-0-2-1"
       sodipodi:cx="407.14285"
       sodipodi:cy="616.29077"
       sodipodi:rx="25.714285"
       sodipodi:ry="41.07143"
       d="m 432.85714,616.29077 c 0,22.68313 -11.51268,41.07143 -25.71429,41.07143 -14.2016,0 -25.71428,-18.3883 -25.71428,-41.07143 0,-22.68312 11.51268,-41.07143 25.71428,-41.07143 14.20161,0 25.71429,18.38831 25.71429,41.07143 z"
       transform="matrix(0.36871052,0,0,0.20572223,152.01515,836.24669)" />
    <rect
       style="fill:#59689b;fill-opacity:1;fill-rule:nonzero;stroke:#000000;stroke-width:2;stroke-linejoin:round;stroke-miterlimit:4;stroke-opacity:1;stroke-dasharray:none;stroke-dashoffset:0"
       id="rect4285-7-9-7-5-4"
       width="19.364706"
       height="17.12253"
       x="291.86215"
       y="929.73224" />
    <path
       sodipodi:type="arc"
       style="fill:#ffffff;fill-opacity:1;fill-rule:nonzero;stroke:#000000;stroke-width:7.26183891;stroke-miterlimit:4;stroke-dasharray:none"
       id="path3769-3-5-9"
       sodipodi:cx="407.14285"
       sodipodi:cy="616.29077"
       sodipodi:rx="25.714285"
       sodipodi:ry="41.07143"
       d="m 432.85714,616.29077 c 0,22.68313 -11.51268,41.07143 -25.71429,41.07143 -14.2016,0 -25.71428,-18.3883 -25.71428,-41.07143 0,-22.68312 11.51268,-41.07143 25.71428,-41.07143 14.20161,0 25.71429,18.38831 25.71429,41.07143 z"
       transform="matrix(0.36871052,0,0,0.20572223,172.48126,836.13165)" />
    <rect
       style="fill:#59689b;fill-opacity:1;fill-rule:nonzero;stroke:#000000;stroke-width:2;stroke-linejoin:round;stroke-miterlimit:4;stroke-opacity:1;stroke-dasharray:none;stroke-dashoffset:0"
       id="rect4285-7-9-2-9"
       width="19.364706"
       height="17.12253"
       x="312.32825"
       y="929.61719" />
    <path
       sodipodi:type="arc"
       style="fill:#c33e3c;fill-opacity:1;fill-rule:nonzero;stroke:#000000;stroke-width:7.26183891;stroke-miterlimit:4;stroke-dasharray:none"
       id="path3769-3-0-1-0"
       sodipodi:cx="407.14285"
       sodipodi:cy="616.29077"
       sodipodi:rx="25.714285"
       sodipodi:ry="41.07143"
       d="m 432.85714,616.29077 c 0,22.68313 -11.51268,41.07143 -25.71429,41.07143 -14.2016,0 -25.71428,-18.3883 -25.71428,-41.07143 0,-22.68312 11.51268,-41.07143 25.71428,-41.07143 14.20161,0 25.71429,18.38831 25.71429,41.07143 z"
       transform="matrix(0.36871052,0,0,0.20572223,192.29266,836.13165)" />
    <rect
       style="fill:#59689b;fill-opacity:1;fill-rule:nonzero;stroke:#000000;stroke-width:2;stroke-linejoin:round;stroke-miterlimit:4;stroke-opacity:1;stroke-dasharray:none;stroke-dashoffset:0"
       id="rect4285-7-9-7-4-3"
       width="19.364706"
       height="17.12253"
       x="333.15973"
       y="929.61719" />
    <path
       sodipodi:type="arc"
       style="fill:#ffffff;fill-opacity:1;fill-rule:nonzero;stroke:#000000;stroke-width:7.26183891;stroke-miterlimit:4;stroke-dasharray:none"
       id="path3769-3-0-2-8-0"
       sodipodi:cx="407.14285"
       sodipodi:cy="616.29077"
       sodipodi:rx="25.714285"
       sodipodi:ry="41.07143"
       d="m 432.85714,616.29077 c 0,22.68313 -11.51268,41.07143 -25.71429,41.07143 -14.2016,0 -25.71428,-18.3883 -25.71428,-41.07143 0,-22.68312 11.51268,-41.07143 25.71428,-41.07143 14.20161,0 25.71429,18.38831 25.71429,41.07143 z"
       transform="matrix(0.36871052,0,0,0.20572223,212.21607,835.92881)" />
    <rect
       style="fill:#59689b;fill-opacity:1;fill-rule:nonzero;stroke:#000000;stroke-width:2;stroke-linejoin:round;stroke-miterlimit:4;stroke-opacity:1;stroke-dasharray:none;stroke-dashoffset:0"
       id="rect4285-7-9-7-5-6-3"
       width="19.364706"
       height="17.12253"
       x="353.5932"
       y="929.41437" />
    <path
       sodipodi:type="arc"
       style="fill:#c33e3c;fill-opacity:1;fill-rule:nonzero;stroke:#000000;stroke-width:7.26183891;stroke-miterlimit:4;stroke-dasharray:none"
       id="path3769-3-4-5"
       sodipodi:cx="407.14285"
       sodipodi:cy="616.29077"
       sodipodi:rx="25.714285"
       sodipodi:ry="41.07143"
       d="m 432.85714,616.29077 c 0,22.68313 -11.51268,41.07143 -25.71429,41.07143 -14.2016,0 -25.71428,-18.3883 -25.71428,-41.07143 0,-22.68312 11.51268,-41.07143 25.71428,-41.07143 14.20161,0 25.71429,18.38831 25.71429,41.07143 z"
       transform="matrix(0.36871052,0,0,0.20572223,232.87221,835.92883)" />
    <rect
       style="fill:#599b79;fill-opacity:1;fill-rule:nonzero;stroke:#000000;stroke-width:2;stroke-linejoin:round;stroke-miterlimit:4;stroke-opacity:1;stroke-dasharray:none;stroke-dashoffset:0"
       id="rect4285-7-9-6-0"
       width="19.364706"
       height="17.12253"
       x="372.71921"
       y="929.41437" />
    <path
       sodipodi:type="arc"
       style="fill:#c33e3c;fill-opacity:1;fill-rule:nonzero;stroke:#000000;stroke-width:7.26183891;stroke-miterlimit:4;stroke-dasharray:none"
       id="path3769-3-0-8-7"
       sodipodi:cx="407.14285"
       sodipodi:cy="616.29077"
       sodipodi:rx="25.714285"
       sodipodi:ry="41.07143"
       d="m 432.85714,616.29077 c 0,22.68313 -11.51268,41.07143 -25.71429,41.07143 -14.2016,0 -25.71428,-18.3883 -25.71428,-41.07143 0,-22.68312 11.51268,-41.07143 25.71428,-41.07143 14.20161,0 25.71429,18.38831 25.71429,41.07143 z"
       transform="matrix(0.36871052,0,0,0.20572223,253.19365,835.92882)" />
    <rect
       style="fill:#599b79;fill-opacity:1;fill-rule:nonzero;stroke:#000000;stroke-width:2;stroke-linejoin:round;stroke-miterlimit:4;stroke-opacity:1;stroke-dasharray:none;stroke-dashoffset:0"
       id="rect4285-7-9-7-9-6"
       width="19.364706"
       height="17.12253"
       x="393.04065"
       y="929.41437" />
    <path
       sodipodi:type="arc"
       style="fill:#c33e3c;fill-opacity:1;fill-rule:nonzero;stroke:#000000;stroke-width:7.26183891;stroke-miterlimit:4;stroke-dasharray:none"
       id="path3769-3-0-2-83-7"
       sodipodi:cx="407.14285"
       sodipodi:cy="616.29077"
       sodipodi:rx="25.714285"
       sodipodi:ry="41.07143"
       d="m 432.85714,616.29077 c 0,22.68313 -11.51268,41.07143 -25.71429,41.07143 -14.2016,0 -25.71428,-18.3883 -25.71428,-41.07143 0,-22.68312 11.51268,-41.07143 25.71428,-41.07143 14.20161,0 25.71429,18.38831 25.71429,41.07143 z"
       transform="matrix(0.36871052,0,0,0.20572223,273.62709,836.18916)" />
    <rect
       style="fill:#599b79;fill-opacity:1;fill-rule:nonzero;stroke:#000000;stroke-width:2;stroke-linejoin:round;stroke-miterlimit:4;stroke-opacity:1;stroke-dasharray:none;stroke-dashoffset:0"
       id="rect4285-7-9-7-5-5-8"
       width="19.364706"
       height="17.12253"
       x="413.47409"
       y="929.67468" />
    <path
       sodipodi:type="arc"
       style="fill:#ffffff;fill-opacity:1;fill-rule:nonzero;stroke:#000000;stroke-width:7.26183891;stroke-miterlimit:4;stroke-dasharray:none"
       id="path3769-3-5-5-3"
       sodipodi:cx="407.14285"
       sodipodi:cy="616.29077"
       sodipodi:rx="25.714285"
       sodipodi:ry="41.07143"
       d="m 432.85714,616.29077 c 0,22.68313 -11.51268,41.07143 -25.71429,41.07143 -14.2016,0 -25.71428,-18.3883 -25.71428,-41.07143 0,-22.68312 11.51268,-41.07143 25.71428,-41.07143 14.20161,0 25.71429,18.38831 25.71429,41.07143 z"
       transform="matrix(0.36871052,0,0,0.20572223,294.09321,836.07412)" />
    <rect
       style="fill:#599b79;fill-opacity:1;fill-rule:nonzero;stroke:#000000;stroke-width:2;stroke-linejoin:round;stroke-miterlimit:4;stroke-opacity:1;stroke-dasharray:none;stroke-dashoffset:0"
       id="rect4285-7-9-2-1-6"
       width="19.364706"
       height="17.12253"
       x="433.94022"
       y="929.55969" />
    <path
       sodipodi:type="arc"
       style="fill:#c33e3c;fill-opacity:1;fill-rule:nonzero;stroke:#000000;stroke-width:7.26183891;stroke-miterlimit:4;stroke-dasharray:none"
       id="path3769-3-0-1-5-4"
       sodipodi:cx="407.14285"
       sodipodi:cy="616.29077"
       sodipodi:rx="25.714285"
       sodipodi:ry="41.07143"
       d="m 432.85714,616.29077 c 0,22.68313 -11.51268,41.07143 -25.71429,41.07143 -14.2016,0 -25.71428,-18.3883 -25.71428,-41.07143 0,-22.68312 11.51268,-41.07143 25.71428,-41.07143 14.20161,0 25.71429,18.38831 25.71429,41.07143 z"
       transform="matrix(0.36871052,0,0,0.20572223,313.90462,836.07412)" />
    <rect
       style="fill:#599b79;fill-opacity:1;fill-rule:nonzero;stroke:#000000;stroke-width:2;stroke-linejoin:round;stroke-miterlimit:4;stroke-opacity:1;stroke-dasharray:none;stroke-dashoffset:0"
       id="rect4285-7-9-7-4-5-4"
       width="19.364706"
       height="17.12253"
       x="454.7717"
       y="929.55969" />
    <path
       sodipodi:type="arc"
       style="fill:#c33e3c;fill-opacity:1;fill-rule:nonzero;stroke:#000000;stroke-width:7.26183891;stroke-miterlimit:4;stroke-dasharray:none"
       id="path3769-3-0-2-8-8-1"
       sodipodi:cx="407.14285"
       sodipodi:cy="616.29077"
       sodipodi:rx="25.714285"
       sodipodi:ry="41.07143"
       d="m 432.85714,616.29077 c 0,22.68313 -11.51268,41.07143 -25.71429,41.07143 -14.2016,0 -25.71428,-18.3883 -25.71428,-41.07143 0,-22.68312 11.51268,-41.07143 25.71428,-41.07143 14.20161,0 25.71429,18.38831 25.71429,41.07143 z"
       transform="matrix(0.36871052,0,0,0.20572223,333.82803,835.87128)" />
    <rect
       style="fill:#599b79;fill-opacity:1;fill-rule:nonzero;stroke:#000000;stroke-width:2;stroke-linejoin:round;stroke-miterlimit:4;stroke-opacity:1;stroke-dasharray:none;stroke-dashoffset:0"
       id="rect4285-7-9-7-5-6-4-9"
       width="19.364706"
       height="17.12253"
       x="475.20514"
       y="929.35681" />
    <path
       sodipodi:type="arc"
       style="fill:#c33e3c;fill-opacity:1;fill-rule:nonzero;stroke:#000000;stroke-width:7.26183891;stroke-miterlimit:4;stroke-dasharray:none"
       id="path3769-3-56"
       sodipodi:cx="407.14285"
       sodipodi:cy="616.29077"
       sodipodi:rx="25.714285"
       sodipodi:ry="41.07143"
       d="m 432.85714,616.29077 c 0,22.68313 -11.51268,41.07143 -25.71429,41.07143 -14.2016,0 -25.71428,-18.3883 -25.71428,-41.07143 0,-22.68312 11.51268,-41.07143 25.71428,-41.07143 14.20161,0 25.71429,18.38831 25.71429,41.07143 z"
       transform="matrix(0.36871052,0,0,0.20572223,354.45908,835.72553)" />
    <rect
       style="fill:#599b79;fill-opacity:1;fill-rule:nonzero;stroke:#000000;stroke-width:2;stroke-linejoin:round;stroke-miterlimit:4;stroke-opacity:1;stroke-dasharray:none;stroke-dashoffset:0"
       id="rect4285-7-9-0"
       width="19.364706"
       height="17.12253"
       x="494.30612"
       y="929.21106" />
    <path
       sodipodi:type="arc"
       style="fill:#c33e3c;fill-opacity:1;fill-rule:nonzero;stroke:#000000;stroke-width:7.26183891;stroke-miterlimit:4;stroke-dasharray:none"
       id="path3769-3-0-5"
       sodipodi:cx="407.14285"
       sodipodi:cy="616.29077"
       sodipodi:rx="25.714285"
       sodipodi:ry="41.07143"
       d="m 432.85714,616.29077 c 0,22.68313 -11.51268,41.07143 -25.71429,41.07143 -14.2016,0 -25.71428,-18.3883 -25.71428,-41.07143 0,-22.68312 11.51268,-41.07143 25.71428,-41.07143 14.20161,0 25.71429,18.38831 25.71429,41.07143 z"
       transform="matrix(0.36871052,0,0,0.20572223,374.78052,835.72553)" />
    <rect
       style="fill:#599b79;fill-opacity:1;fill-rule:nonzero;stroke:#000000;stroke-width:2;stroke-linejoin:round;stroke-miterlimit:4;stroke-opacity:1;stroke-dasharray:none;stroke-dashoffset:0"
       id="rect4285-7-9-7-94"
       width="19.364706"
       height="17.12253"
       x="514.62756"
       y="929.21106" />
    <path
       sodipodi:type="arc"
       style="fill:#c33e3c;fill-opacity:1;fill-rule:nonzero;stroke:#000000;stroke-width:7.26183891;stroke-miterlimit:4;stroke-dasharray:none"
       id="path3769-3-0-2-6"
       sodipodi:cx="407.14285"
       sodipodi:cy="616.29077"
       sodipodi:rx="25.714285"
       sodipodi:ry="41.07143"
       d="m 432.85714,616.29077 c 0,22.68313 -11.51268,41.07143 -25.71429,41.07143 -14.2016,0 -25.71428,-18.3883 -25.71428,-41.07143 0,-22.68312 11.51268,-41.07143 25.71428,-41.07143 14.20161,0 25.71429,18.38831 25.71429,41.07143 z"
       transform="matrix(0.36871052,0,0,0.20572223,395.21397,835.98587)" />
    <rect
       style="fill:#599b79;fill-opacity:1;fill-rule:nonzero;stroke:#000000;stroke-width:2;stroke-linejoin:round;stroke-miterlimit:4;stroke-opacity:1;stroke-dasharray:none;stroke-dashoffset:0"
       id="rect4285-7-9-7-5-3"
       width="19.364706"
       height="17.12253"
       x="535.06104"
       y="929.47144" />
    <path
       sodipodi:type="arc"
       style="fill:#c33e3c;fill-opacity:1;fill-rule:nonzero;stroke:#000000;stroke-width:7.26183891;stroke-miterlimit:4;stroke-dasharray:none"
       id="path3769-3-5-4"
       sodipodi:cx="407.14285"
       sodipodi:cy="616.29077"
       sodipodi:rx="25.714285"
       sodipodi:ry="41.07143"
       d="m 432.85714,616.29077 c 0,22.68313 -11.51268,41.07143 -25.71429,41.07143 -14.2016,0 -25.71428,-18.3883 -25.71428,-41.07143 0,-22.68312 11.51268,-41.07143 25.71428,-41.07143 14.20161,0 25.71429,18.38831 25.71429,41.07143 z"
       transform="matrix(0.36871052,0,0,0.20572223,415.68008,835.87083)" />
    <rect
       style="fill:#599b79;fill-opacity:1;fill-rule:nonzero;stroke:#000000;stroke-width:2;stroke-linejoin:round;stroke-miterlimit:4;stroke-opacity:1;stroke-dasharray:none;stroke-dashoffset:0"
       id="rect4285-7-9-2-90"
       width="19.364706"
       height="17.12253"
       x="555.5271"
       y="929.35638" />
    <path
       sodipodi:type="arc"
       style="fill:#c33e3c;fill-opacity:1;fill-rule:nonzero;stroke:#000000;stroke-width:7.26183891;stroke-miterlimit:4;stroke-dasharray:none"
       id="path3769-3-0-1-53"
       sodipodi:cx="407.14285"
       sodipodi:cy="616.29077"
       sodipodi:rx="25.714285"
       sodipodi:ry="41.07143"
       d="m 432.85714,616.29077 c 0,22.68313 -11.51268,41.07143 -25.71429,41.07143 -14.2016,0 -25.71428,-18.3883 -25.71428,-41.07143 0,-22.68312 11.51268,-41.07143 25.71428,-41.07143 14.20161,0 25.71429,18.38831 25.71429,41.07143 z"
       transform="matrix(0.36871052,0,0,0.20572223,435.49149,835.87083)" />
    <rect
       style="fill:#599b79;fill-opacity:1;fill-rule:nonzero;stroke:#000000;stroke-width:2;stroke-linejoin:round;stroke-miterlimit:4;stroke-opacity:1;stroke-dasharray:none;stroke-dashoffset:0"
       id="rect4285-7-9-7-4-9"
       width="19.364706"
       height="17.12253"
       x="576.35858"
       y="929.35638" />
    <flowRoot
       xml:space="preserve"
       id="flowRoot4689"
       style="font-size:10px;font-style:normal;font-weight:normal;line-height:125%;letter-spacing:0px;word-spacing:0px;fill:#000000;fill-opacity:1;stroke:none;font-family:Sans"
       transform="translate(-20.883858,457.65307)"><flowRegion
         id="flowRegion4691"><rect
           id="rect4693"
           width="171.3878"
           height="24.26181"
           x="28.612204"
           y="408.10037" /></flowRegion><flowPara
         id="flowPara4695"
         style="font-size:20px;font-weight:bold;-inkscape-font-specification:Sans Bold">HIDDEN STATES</flowPara></flowRoot>    <flowRoot
       xml:space="preserve"
       id="flowRoot4689-4"
       style="font-size:10px;font-style:normal;font-weight:normal;line-height:125%;letter-spacing:0px;word-spacing:0px;fill:#000000;fill-opacity:1;stroke:none;font-family:Sans"
       transform="translate(-20.883858,607.65307)"><flowRegion
         id="flowRegion4691-2"><rect
           id="rect4693-5"
           width="171.3878"
           height="24.26181"
           x="28.612204"
           y="408.10037" /></flowRegion><flowPara
         id="flowPara4695-0"
         style="font-size:20px;font-weight:bold;-inkscape-font-specification:Sans Bold">OBSERVATIONS</flowPara></flowRoot>    <flowRoot
       xml:space="preserve"
       id="flowRoot4737"
       style="font-size:14px;font-style:normal;font-weight:normal;line-height:125%;letter-spacing:0px;word-spacing:0px;fill:#000000;fill-opacity:1;stroke:none;font-family:Sans"
       transform="translate(-100.69636,579.44776)"><flowRegion
         id="flowRegion4739"><rect
           id="rect4741"
           width="121.22539"
           height="36.894684"
           x="108.42519"
           y="331.29919"
           style="font-size:14px" /></flowRegion><flowPara
         id="flowPara4743">S<flowSpan
   style="font-size:14px;baseline-shift:sub"
   id="flowSpan4745">1</flowSpan></flowPara></flowRoot>    <flowRoot
       xml:space="preserve"
       id="flowRoot4737-4"
       style="font-size:14px;font-style:normal;font-weight:normal;line-height:125%;letter-spacing:0px;word-spacing:0px;fill:#000000;fill-opacity:1;stroke:none;font-family:Sans"
       transform="translate(-78.4375,579.44776)"><flowRegion
         id="flowRegion4739-2"><rect
           id="rect4741-1"
           width="121.22539"
           height="36.894684"
           x="108.42519"
           y="331.29919"
           style="font-size:14px" /></flowRegion><flowPara
         id="flowPara4743-2">S<flowSpan
   style="font-size:65.00091553%;baseline-shift:sub"
   id="flowSpan4777">2</flowSpan></flowPara></flowRoot>    <flowRoot
       xml:space="preserve"
       id="flowRoot4737-4-7"
       style="font-size:14px;font-style:normal;font-weight:normal;line-height:125%;letter-spacing:0px;word-spacing:0px;fill:#000000;fill-opacity:1;stroke:none;font-family:Sans"
       transform="translate(-58.4375,579.44776)"><flowRegion
         id="flowRegion4739-2-9"><rect
           id="rect4741-1-5"
           width="121.22539"
           height="36.894684"
           x="108.42519"
           y="331.29919"
           style="font-size:14px" /></flowRegion><flowPara
         id="flowPara4743-2-5">S<flowSpan
   style="font-size:65.00091553%;baseline-shift:sub"
   id="flowSpan4809">3</flowSpan></flowPara></flowRoot>    <flowRoot
       xml:space="preserve"
       id="flowRoot4737-0"
       style="font-size:14px;font-style:normal;font-weight:normal;line-height:125%;letter-spacing:0px;word-spacing:0px;fill:#000000;fill-opacity:1;stroke:none;font-family:Sans"
       transform="translate(-100.73934,642.04977)"><flowRegion
         id="flowRegion4739-3"><rect
           id="rect4741-4"
           width="121.22539"
           height="36.894684"
           x="108.42519"
           y="331.29919"
           style="font-size:14px" /></flowRegion><flowPara
         id="flowPara4743-1"
         style="font-size:14px;baseline-shift:sub">X<flowSpan
   id="flowSpan4874">1</flowSpan></flowPara></flowRoot>    <flowRoot
       xml:space="preserve"
       id="flowRoot4737-0-4"
       style="font-size:14px;font-style:normal;font-weight:normal;line-height:125%;letter-spacing:0px;word-spacing:0px;fill:#000000;fill-opacity:1;stroke:none;font-family:Sans"
       transform="translate(-80.363175,642.2339)"><flowRegion
         id="flowRegion4739-3-4"><rect
           id="rect4741-4-6"
           width="121.22539"
           height="36.894684"
           x="108.42519"
           y="331.29919"
           style="font-size:14px" /></flowRegion><flowPara
         id="flowPara4743-1-9"
         style="font-size:14px;baseline-shift:sub">X<flowSpan
   id="flowSpan4906">2</flowSpan></flowPara></flowRoot>    <flowRoot
       xml:space="preserve"
       id="flowRoot4737-0-4-5"
       style="font-size:14px;font-style:normal;font-weight:normal;line-height:125%;letter-spacing:0px;word-spacing:0px;fill:#000000;fill-opacity:1;stroke:none;font-family:Sans"
       transform="translate(-58.690609,642.98686)"><flowRegion
         id="flowRegion4739-3-4-6"><rect
           id="rect4741-4-6-6"
           width="121.22539"
           height="36.894684"
           x="108.42519"
           y="331.29919"
           style="font-size:14px" /></flowRegion><flowPara
         id="flowPara4743-1-9-0"
         style="font-size:14px;baseline-shift:sub">X<flowSpan
   id="flowSpan4938">3</flowSpan></flowPara></flowRoot>    <flowRoot
       xml:space="preserve"
       id="flowRoot4737-0-4-2"
       style="font-size:14px;font-style:normal;font-weight:normal;line-height:125%;letter-spacing:0px;word-spacing:0px;fill:#000000;fill-opacity:1;stroke:none;font-family:Sans"
       transform="translate(468.3763,642.98685)"><flowRegion
         id="flowRegion4739-3-4-7"><rect
           id="rect4741-4-6-2"
           width="121.22539"
           height="36.894684"
           x="108.42519"
           y="331.29919"
           style="font-size:14px" /></flowRegion><flowPara
         id="flowPara4743-1-9-6"
         style="font-size:14px;baseline-shift:sub">X<flowSpan
   id="flowSpan4955">n</flowSpan></flowPara></flowRoot>    <flowRoot
       xml:space="preserve"
       id="flowRoot4737-0-4-2-7"
       style="font-size:14px;font-style:normal;font-weight:normal;line-height:125%;letter-spacing:0px;word-spacing:0px;fill:#000000;fill-opacity:1;stroke:none;font-family:Sans"
       transform="translate(468.48909,577.19748)"
       inkscape:transform-center-x="-8.0561523"><flowRegion
         id="flowRegion4739-3-4-7-1"><rect
           id="rect4741-4-6-2-3"
           width="121.22539"
           height="36.894684"
           x="108.42519"
           y="331.29919"
           style="font-size:14px" /></flowRegion><flowPara
         id="flowPara4743-1-9-6-2"
         style="font-size:14px;baseline-shift:sub">Sn</flowPara></flowRoot>    <flowRoot
       transform="translate(-298.90825,542.3351)"
       xml:space="preserve"
       id="flowRoot4987-6"
       style="font-size:10px;font-style:normal;font-weight:normal;line-height:125%;letter-spacing:0px;word-spacing:0px;fill:#000000;fill-opacity:1;stroke:none;font-family:Sans"><flowRegion
         id="flowRegion4989-3"><rect
           id="rect4991-8"
           width="61.742123"
           height="33.882874"
           x="369.6998"
           y="366.68799" /></flowRegion><flowPara
         id="flowPara4993-3"
         style="font-size:18px">...</flowPara></flowRoot>    <flowRoot
       transform="translate(-298.90825,607.84198)"
       xml:space="preserve"
       id="flowRoot4987-2"
       style="font-size:10px;font-style:normal;font-weight:normal;line-height:125%;letter-spacing:0px;word-spacing:0px;fill:#000000;fill-opacity:1;stroke:none;font-family:Sans"><flowRegion
         id="flowRegion4989-8"><rect
           id="rect4991-6"
           width="61.742123"
           height="33.882874"
           x="369.6998"
           y="366.68799" /></flowRegion><flowPara
         id="flowPara4993-0"
         style="font-size:18px">...</flowPara></flowRoot>  </g>
</svg>
